<svg width="718" height="311" viewBox="0 0 718 311" fill="none" xmlns="http://www.w3.org/2000/svg">
<rect width="718" height="311" fill="white"/>
<path d="M174.961 2.40039C168.791 2.40039 164.378 4.95625 164.378 8.53038V295.309C164.378 298.883 168.791 301.439 174.961 301.439C181.132 301.439 185.545 298.883 185.545 295.309V8.53038C185.545 5.4753 181.132 2.40039 174.961 2.40039Z" fill="#BA6F46"/>
<path d="M227.923 57.6116C221.752 57.6116 217.34 60.1674 217.34 63.7415V243.67C217.34 247.244 221.753 249.8 227.923 249.8C234.094 249.8 238.506 247.244 238.506 243.67V63.7415C238.506 60.1673 233.198 57.6116 227.923 57.6116Z" fill="#BA6F46"/>
<path d="M279.967 103.098C273.797 103.098 269.384 105.654 269.384 109.228V194.589C269.384 198.163 273.797 200.719 279.967 200.719C286.138 200.719 290.552 198.163 290.552 194.589V109.249C290.552 106.174 286.138 103.098 279.967 103.098Z" fill="#BA6F46"/>
<path d="M332.923 127.638C326.753 127.638 322.34 130.193 322.34 133.767V170.568C322.34 174.142 326.753 176.698 332.923 176.698C339.094 176.698 343.506 174.142 343.506 170.568V133.767C343.506 130.712 339.094 127.638 332.923 127.638Z" fill="#BA6F46"/>
<path d="M122.017 57.6116C115.846 57.6116 111.434 60.1674 111.434 63.7415V243.67C111.434 247.244 115.846 249.8 122.017 249.8C128.188 249.8 132.6 247.244 132.6 243.67V63.7415C132.6 60.1673 128.188 57.6116 122.017 57.6116Z" fill="#BA6F46"/>
<path d="M16.9701 127.638C10.7993 127.638 6.38672 130.193 6.38672 133.767V170.568C6.38672 174.142 10.7994 176.698 16.9701 176.698C23.1409 176.698 27.5536 174.142 27.5536 170.568V133.767C27.5536 130.712 23.1409 127.638 16.9701 127.638Z" fill="#BA6F46"/>
<path d="M69.9204 103.098C63.7494 103.098 59.3369 105.654 59.3369 109.228V194.589C59.3369 198.163 63.7496 200.719 69.9204 200.719C76.0911 200.719 80.5038 198.163 80.5038 194.589V109.249C80.5038 106.174 75.2291 103.098 69.9204 103.098Z" fill="#BA6F46"/>
<path d="M543.842 2.40039C537.671 2.40039 533.259 4.95625 533.259 8.53038V295.309C533.259 298.883 537.672 301.439 543.842 301.439C550.013 301.439 554.425 298.883 554.425 295.309L554.46 8.53038C554.46 5.4753 550.048 2.40039 543.842 2.40039Z" fill="black"/>
<path d="M596.786 57.6116C590.616 57.6116 586.203 60.1674 586.203 63.7415V243.67C586.203 247.244 590.616 249.8 596.786 249.8C602.958 249.8 607.37 247.244 607.37 243.67L607.404 63.7415C607.404 60.1673 602.096 57.6116 596.786 57.6116Z" fill="black"/>
<path d="M648.889 103.098C642.719 103.098 638.306 105.654 638.306 109.228V194.589C638.306 198.163 642.719 200.719 648.889 200.719C655.06 200.719 659.473 198.163 659.473 194.589V109.249C659.473 106.174 655.06 103.098 648.889 103.098Z" fill="black"/>
<path d="M701.835 127.638C695.663 127.638 691.25 130.193 691.25 133.767V170.568C691.25 174.142 695.663 176.698 701.835 176.698C708.005 176.698 712.418 174.142 712.418 170.568V133.767C712.418 130.712 708.005 127.638 701.835 127.638Z" fill="black"/>
<path d="M490.88 57.6116C484.71 57.6116 480.297 60.1674 480.297 63.7415V243.67C480.297 247.244 484.71 249.8 490.88 249.8C497.051 249.8 501.465 247.244 501.465 243.67L501.498 63.7415C501.498 60.1673 497.086 57.6116 490.88 57.6116Z" fill="black"/>
<path d="M438.841 103.098C432.67 103.098 428.258 105.654 428.258 109.228V194.589C428.258 198.163 432.67 200.719 438.841 200.719C445.012 200.719 449.424 198.163 449.424 194.589V109.249C448.563 106.174 444.15 103.098 438.841 103.098Z" fill="black"/>
<path d="M385.885 127.638C379.714 127.638 375.302 130.193 375.302 133.767V170.568C375.302 174.142 379.715 176.698 385.885 176.698C392.056 176.698 396.468 174.142 396.468 170.568V133.767C396.468 130.712 391.195 127.638 385.885 127.638Z" fill="black"/>
</svg>
